HIERARCHY
ROOT joint_0
{
	OFFSET 0.000000 0.000000 0.000000
	CHANNELS 6 Xposition Yposition Zposition Zrotation Yrotation Xrotation 
	JOINT joint_1
	{
		OFFSET 6.590088 -1.122192 114.019043
		CHANNELS 3 Zrotation Yrotation Xrotation
		JOINT joint_2
		{
			OFFSET -5.956055 -0.820435 104.151001
			CHANNELS 3 Zrotation Yrotation Xrotation
			JOINT joint_3
			{
				OFFSET -7.343506 -1.103027 103.942993
				CHANNELS 3 Zrotation Yrotation Xrotation
				JOINT joint_4
				{
					OFFSET 3.109131 -2.857056 147.715942
					CHANNELS 3 Zrotation Yrotation Xrotation
					JOINT joint_5
					{
						OFFSET 28.592285 -2.852295 87.703979
						CHANNELS 3 Zrotation Yrotation Xrotation
						End Site
						{
							OFFSET 0.000000 0.000000 0.000000
						}
					}
				}
				JOINT joint_6
				{
					OFFSET -0.332520 -33.687378 82.401978
					CHANNELS 3 Zrotation Yrotation Xrotation
					JOINT joint_7
					{
						OFFSET -7.397461 -168.719177 -22.750977
						CHANNELS 3 Zrotation Yrotation Xrotation
						JOINT joint_8
						{
							OFFSET 17.065918 -24.903137 -272.721069
							CHANNELS 3 Zrotation Yrotation Xrotation
							JOINT joint_9
							{
								OFFSET 33.311279 -37.031616 -278.192993
								CHANNELS 3 Zrotation Yrotation Xrotation
								End Site
								{
									OFFSET 0.000000 0.000000 0.000000
								}
							}
						}
					}
				}
				JOINT joint_10
				{
					OFFSET 3.914307 30.461670 83.552979
					CHANNELS 3 Zrotation Yrotation Xrotation
					JOINT joint_11
					{
						OFFSET 15.543701 166.845459 -30.963013
						CHANNELS 3 Zrotation Yrotation Xrotation
						JOINT joint_12
						{
							OFFSET 35.734863 35.017700 -269.786011
							CHANNELS 3 Zrotation Yrotation Xrotation
							JOINT joint_13
							{
								OFFSET 70.506592 13.977783 -273.320007
								CHANNELS 3 Zrotation Yrotation Xrotation
								End Site
								{
									OFFSET 0.000000 0.000000 0.000000
								}
							}
						}
					}
				}
			}
		}
	}
	JOINT joint_14
	{
		OFFSET -0.314697 -95.093994 -116.004028
		CHANNELS 3 Zrotation Yrotation Xrotation
		JOINT joint_15
		{
			OFFSET -22.490723 2.017883 -455.510986
			CHANNELS 3 Zrotation Yrotation Xrotation
			JOINT joint_16
			{
				OFFSET -46.427490 7.144104 -496.360985
				CHANNELS 3 Zrotation Yrotation Xrotation
				JOINT joint_17
				{
					OFFSET 209.055420 -37.122803 -85.191002
					CHANNELS 3 Zrotation Yrotation Xrotation
					End Site
					{
						OFFSET 0.000000 0.000000 0.000000
					}
				}
			}
		}
	}
	JOINT joint_18
	{
		OFFSET 5.652832 94.642578 -116.244019
		CHANNELS 3 Zrotation Yrotation Xrotation
		JOINT joint_19
		{
			OFFSET -12.379883 -7.332642 -455.843994
			CHANNELS 3 Zrotation Yrotation Xrotation
			JOINT joint_20
			{
				OFFSET -45.227051 -8.172241 -496.457985
				CHANNELS 3 Zrotation Yrotation Xrotation
				JOINT joint_21
				{
					OFFSET 210.522949 -11.530396 -88.809004
					CHANNELS 3 Zrotation Yrotation Xrotation
					End Site
					{
						OFFSET 0.000000 0.000000 0.000000
					}
				}
			}
		}
	}
}
MOTION
Frames: 10
Frame Time: 0.016667
-2529.212646 1098.974365 1203.932007 -3.422448 4.298386 2.059080 1.159764 3.111790 1.041210 1.120230 -0.566794 -0.156338 1.163687 0.675973 0.083252 1.142924 -3.190691 -3.031215 0.000000 0.000000 0.000000 -3.212874 11.314189 -1.854760 2.325506 10.514882 -5.777819 7.105868 -80.679251 -0.706137 0.000000 0.000000 0.000000 3.669303 4.723154 1.534078 12.252839 3.115760 13.715848 175.435210 -86.340733 141.414467 0.000000 0.000000 0.000000 1.811632 -6.221198 -4.955520 1.453217 14.870448 1.421470 1.233256 2.431837 0.919557 0.000000 0.000000 0.000000 -0.539208 -14.575378 3.443396 -1.237178 4.085767 1.305048 -1.366123 16.690140 0.281198 0.000000 0.000000 0.000000 
-2523.102539 1102.501221 1200.204956 -4.389371 4.613648 1.848510 1.413528 2.967549 1.230323 1.311920 -0.564588 -0.157923 1.345493 0.667364 0.071829 1.135663 -3.122256 -2.970968 0.000000 0.000000 0.000000 -3.073120 11.362912 -1.938089 2.226191 10.557118 -6.384008 6.934061 -80.766500 -2.008865 0.000000 0.000000 0.000000 3.778243 4.665115 1.641534 13.165034 3.052988 14.802089 176.106313 -84.619808 140.381802 0.000000 0.000000 0.000000 2.476697 -7.130246 -5.538300 2.106271 16.496162 2.178881 1.956863 1.372283 1.013890 0.000000 0.000000 0.000000 0.408865 -14.296271 3.365820 -0.125649 4.543549 0.940623 -0.267912 14.032681 0.616691 0.000000 0.000000 0.000000 
-2517.531738 1105.657349 1197.103027 -5.253631 4.853826 1.639981 1.637794 2.877086 1.400470 1.476608 -0.556962 -0.192309 1.502648 0.652528 0.069612 1.111460 -2.996023 -2.873889 0.000000 0.000000 0.000000 -2.964103 11.388350 -1.978345 2.144346 10.577879 -6.971998 6.798808 -80.944480 -3.018483 0.000000 0.000000 0.000000 3.869346 4.539523 1.783021 13.986504 2.977824 15.660612 176.702230 -83.198715 139.279919 0.000000 0.000000 0.000000 3.112296 -8.158646 -6.193261 2.730138 18.359587 3.151257 2.685625 0.687717 1.173956 0.000000 0.000000 0.000000 1.096224 -13.913426 3.373583 0.719529 4.787260 0.590633 0.571038 11.720367 0.853618 0.000000 0.000000 0.000000 
-2512.642822 1108.478516 1194.942017 -5.963058 4.995924 1.469717 1.807996 2.856839 1.523984 1.585771 -0.531281 -0.258075 1.606379 0.621787 0.088200 1.069552 -2.769054 -2.749467 0.000000 0.000000 0.000000 -2.911401 11.363173 -1.983111 2.076289 10.564644 -7.619992 6.730181 -81.408129 -3.398798 0.000000 0.000000 0.000000 3.894810 4.257875 2.018720 14.680537 2.899149 16.002258 177.133566 -82.369139 137.803114 0.000000 0.000000 0.000000 3.723522 -9.394787 -7.033777 3.321933 20.671572 4.533900 3.446097 0.690636 1.464390 0.000000 0.000000 0.000000 1.410036 -13.377379 3.432791 1.195077 4.474209 0.368685 1.042564 10.323651 0.981045 0.000000 0.000000 0.000000 
-2508.294434 1110.930176 1193.406982 -6.549055 5.064203 1.353311 1.944232 2.892684 1.538619 1.660026 -0.507077 -0.308750 1.673269 0.586804 0.114840 1.013954 -2.481508 -2.599550 0.000000 0.000000 0.000000 -2.885293 11.324557 -1.947123 2.020338 10.540251 -8.246061 6.695286 -82.012213 -3.490731 0.000000 0.000000 0.000000 3.898572 3.917496 2.310192 15.280597 2.823257 16.081627 177.462252 -81.857916 136.221638 0.000000 0.000000 0.000000 4.307887 -10.729283 -8.005611 3.903011 23.177947 6.137425 4.258836 1.190295 1.858984 0.000000 0.000000 0.000000 1.519403 -12.742339 3.497021 1.471452 3.959501 0.179882 1.314228 9.264040 1.041488 0.000000 0.000000 0.000000 
-2504.253418 1112.858398 1192.261963 -6.964460 5.117642 1.297650 1.998952 2.941484 1.441466 1.660775 -0.501408 -0.315148 1.662646 0.564575 0.132372 0.964389 -2.250974 -2.465768 0.000000 0.000000 0.000000 -2.856657 11.282521 -1.853745 2.070020 10.489848 -8.614348 6.745327 -82.478201 -3.786868 0.000000 0.000000 0.000000 3.936218 3.640446 2.556945 15.818697 2.766752 16.132453 177.767492 -81.340649 134.970788 0.000000 0.000000 0.000000 4.714871 -11.938077 -8.901574 4.339294 25.343505 7.509271 4.911184 1.563911 2.167010 0.000000 0.000000 0.000000 1.573983 -12.047207 3.466255 1.677908 3.244018 0.090687 1.516622 8.520965 1.088688 0.000000 0.000000 0.000000 
-2500.472168 1114.198608 1191.478027 -7.178309 5.188294 1.316787 1.936990 2.967538 1.228876 1.554470 -0.501356 -0.289575 1.540218 0.561948 0.130980 0.927181 -2.140080 -2.359562 0.000000 0.000000 0.000000 -2.807771 11.249040 -1.668552 2.299604 10.408590 -8.578455 6.931700 -82.713133 -4.550301 0.000000 0.000000 0.000000 4.047875 3.501511 2.721030 16.309553 2.748965 16.268707 178.085099 -80.605208 134.291838 0.000000 0.000000 0.000000 4.913593 -13.073232 -9.704841 4.599239 27.373016 8.631401 5.339489 1.459274 2.301729 0.000000 0.000000 0.000000 1.612120 -11.298595 3.300709 1.857316 2.285762 0.120935 1.689838 8.119092 1.141302 0.000000 0.000000 0.000000 
-2496.998291 1115.015503 1191.083984 -7.242634 5.255050 1.367060 1.799392 2.984748 0.964648 1.381254 -0.506228 -0.251149 1.349620 0.570323 0.120488 0.895987 -2.086075 -2.269723 0.000000 0.000000 0.000000 -2.755912 11.217540 -1.427329 2.639244 10.308921 -8.285395 7.206763 -82.830908 -5.514778 0.000000 0.000000 0.000000 4.195358 3.441785 2.843669 16.707846 2.758398 16.376028 178.357323 -79.885061 133.993199 0.000000 0.000000 0.000000 4.949127 -14.115560 -10.398164 4.711742 29.135939 9.509921 5.553702 1.107073 2.311130 0.000000 0.000000 0.000000 1.609958 -10.498061 3.083984 1.970025 1.128929 0.241750 1.790662 8.021683 1.179574 0.000000 0.000000 0.000000 
-2493.739990 1115.353882 1190.939941 -7.264727 5.323761 1.319078 1.654181 2.962380 0.842441 1.224686 -0.505960 -0.233091 1.185737 0.575727 0.119202 0.875352 -2.022922 -2.214250 0.000000 0.000000 0.000000 -2.724869 11.169773 -1.230179 2.968147 10.202497 -7.931264 7.475969 -82.854492 -6.371164 0.000000 0.000000 0.000000 4.319571 3.383521 2.930830 16.955530 2.762384 16.359942 178.524616 -79.501887 133.868019 0.000000 0.000000 0.000000 4.800952 -14.808410 -10.718990 4.605235 29.693365 9.754676 5.380598 0.545025 2.143951 0.000000 0.000000 0.000000 1.617511 -9.707376 2.969403 2.022425 -0.087946 0.424374 1.827072 8.091879 1.199404 0.000000 0.000000 0.000000 
-2490.640137 1115.159058 1191.162964 -7.205987 5.385224 1.099678 1.494264 2.902294 0.958433 1.088601 -0.509747 -0.238407 1.058437 0.582063 0.137969 0.871362 -1.926675 -2.211393 0.000000 0.000000 0.000000 -2.735279 11.090411 -1.123013 3.257889 10.085361 -7.539094 7.717597 -82.712611 -7.017069 0.000000 0.000000 0.000000 4.399323 3.307695 2.967220 17.013129 2.752321 16.177454 178.553050 -79.624499 133.841688 0.000000 0.000000 0.000000 4.331908 -14.931047 -10.477568 4.101644 28.381209 9.064302 4.584607 -0.277534 1.703796 0.000000 0.000000 0.000000 1.617009 -8.898851 3.024942 1.982553 -1.421436 0.703888 1.772153 8.398865 1.193371 0.000000 0.000000 0.000000 
